<svg version="1.1" id="Layer_1" xmlns="http://www.w3.org/2000/svg" xmlns:xlink="http://www.w3.org/1999/xlink" x="0px" y="0px"
	 width="100%" viewBox="0 0 256 111" enable-background="new 0 0 256 111" xml:space="preserve">
<path fill="#FDFCFC" opacity="1.000000" stroke="none" 
	d="
M132.000000,1.000000 
	C173.641464,1.000000 215.282944,1.000000 256.962219,1.000000 
	C256.962219,37.952404 256.962219,74.904854 256.962219,111.928650 
	C171.765884,111.928650 86.531677,111.928650 1.148739,111.928650 
	C1.148739,75.122063 1.148739,38.243328 1.148739,1.000000 
	C41.020157,1.000000 81.041420,1.000000 121.387451,1.317358 
	C112.881065,5.372304 108.834885,10.749263 110.090347,20.205971 
	C110.842896,25.874474 114.038002,31.232183 116.244522,36.685379 
	C116.849579,38.180714 117.757088,39.580776 118.688942,40.910206 
	C119.982841,42.756149 121.576340,46.095329 122.785881,45.985264 
	C126.788757,45.621017 131.456131,48.583168 134.827118,44.250389 
	C135.212799,43.754673 135.336761,43.060192 135.608246,42.469906 
	C136.609482,40.292877 137.288498,37.874729 138.683411,35.986614 
	C148.418304,22.809597 145.763306,8.598175 132.000000,1.000000 
M247.884018,95.069702 
	C249.503311,94.934227 251.122589,94.798752 252.741882,94.663277 
	C252.700348,94.168434 252.658813,93.673584 252.617279,93.178741 
	C250.729599,93.178741 248.841934,93.178741 245.819397,93.111328 
	C245.274323,93.570961 244.252441,94.036736 244.258270,94.489281 
	C244.313736,98.792854 244.500473,103.096756 244.758224,107.394043 
	C244.812271,108.294907 245.312439,109.169022 245.607040,110.055458 
	C246.097885,109.994629 246.588745,109.933792 247.079590,109.872955 
	C247.079590,104.972130 247.079590,100.071297 247.884018,95.069702 
M156.938675,43.814659 
	C159.711731,42.497452 164.347473,41.688778 164.874481,39.758385 
	C166.011627,35.593201 161.288879,34.717979 158.321823,33.177948 
	C158.101242,33.063450 157.714447,33.269165 157.167938,33.369553 
	C156.770035,34.491783 156.335754,35.716625 155.386642,36.461239 
	C155.230057,35.292980 155.073486,34.124722 155.186661,32.304546 
	C156.183289,30.221796 157.914581,28.163939 157.986221,26.049847 
	C158.071304,23.538767 157.415710,20.275749 155.776184,18.675650 
	C154.582382,17.510576 150.315979,17.575769 149.140289,18.776886 
	C147.530289,20.421732 146.891754,23.709511 147.067108,26.206741 
	C147.228455,28.504105 149.017624,30.687153 149.978775,33.624241 
	C149.552261,34.160084 149.125732,34.695923 148.321548,34.649017 
	C144.553391,31.634079 142.504944,35.177490 140.601517,37.135754 
	C138.631989,39.162025 139.461731,41.773926 142.244400,42.524937 
	C145.357193,43.365047 148.676773,43.439091 152.519653,44.151505 
	C153.734604,44.025780 154.949570,43.900059 156.938675,43.814659 
M96.147064,100.858849 
	C94.335625,98.265739 95.464104,93.382446 90.618835,93.015457 
	C90.618835,98.934296 90.618835,104.469543 90.618835,110.004791 
	C91.106232,110.018410 91.593620,110.032021 92.081017,110.045639 
	C92.258087,106.714859 92.435165,103.384087 92.679893,98.780663 
	C93.995621,101.051628 94.553177,102.013985 95.146858,103.706505 
	C96.114380,105.884262 97.081902,108.062027 98.611755,111.505531 
	C100.795456,106.748863 102.396477,103.261421 104.531456,98.610870 
	C104.762268,103.430206 104.918877,106.700294 105.075485,109.970383 
	C105.555946,109.957069 106.036400,109.943764 106.516861,109.930450 
	C106.516861,104.389168 106.516861,98.847893 106.516861,92.629990 
	C100.800934,95.297897 102.187920,102.143456 98.420135,105.630348 
	C97.629860,104.161377 96.934288,102.868446 96.147064,100.858849 
M90.420074,30.223143 
	C90.120499,31.474684 89.820923,32.726227 89.161713,34.467327 
	C88.793663,34.598640 88.425621,34.729954 87.907028,34.132294 
	C87.262978,32.121052 86.618927,30.109812 85.724487,27.316662 
	C82.200638,29.404470 78.838295,30.878979 76.121361,33.131836 
	C72.370865,36.241718 73.029953,40.576481 77.561859,42.026966 
	C80.785713,43.058800 84.439034,42.748856 88.008499,43.846535 
	C88.313690,46.565601 88.041847,50.027973 91.826645,50.096874 
	C93.457314,50.126560 95.125740,48.082626 96.833984,46.495300 
	C96.665222,46.128242 96.392006,46.016438 95.452339,45.847904 
	C95.307419,45.243584 95.162506,44.639263 95.761292,43.901646 
	C96.514282,43.849945 97.267265,43.798244 98.840340,43.970879 
	C101.934998,43.443230 105.156723,43.293083 108.095970,42.303730 
	C113.112381,40.615211 113.881638,36.091225 109.692329,32.789162 
	C107.026718,30.688097 103.821404,29.271742 100.544350,27.365887 
	C98.827019,31.992918 97.351089,35.969536 95.295738,39.715481 
	C95.077919,39.138035 94.860107,38.560593 94.460220,37.168156 
	C94.129242,34.630417 99.496506,30.658447 92.243065,29.457241 
	C91.856201,29.648024 91.469337,29.838806 90.420074,30.223143 
M146.386780,47.090153 
	C144.585800,46.444271 142.784836,45.798393 140.434311,44.955425 
	C138.978287,55.821365 131.119553,65.168648 136.437012,76.787766 
	C140.169113,76.371300 143.963547,76.124214 147.688614,75.477455 
	C150.772415,74.942047 153.882126,74.213051 156.792252,73.084679 
	C165.435120,69.733467 167.068970,61.662853 160.020401,55.624027 
	C156.174576,52.329128 151.408951,50.107830 146.386780,47.090153 
M100.461716,50.922855 
	C98.307808,52.469997 95.945091,53.796745 94.037613,55.603989 
	C87.255287,62.029911 88.703003,70.030251 97.547874,73.042168 
	C102.822655,74.838387 108.538345,75.356667 114.073723,76.349724 
	C114.776901,76.475868 116.144829,76.165031 116.264122,75.771492 
	C117.444557,71.877411 119.732742,67.725311 119.173065,64.030090 
	C118.219978,57.737301 115.441231,51.721020 113.218307,44.944660 
	C109.137260,46.837791 105.120766,48.700977 100.461716,50.922855 
M181.167236,25.268824 
	C181.772949,19.296469 179.947021,14.322565 174.720520,11.120311 
	C165.437225,5.432502 155.450607,6.426603 145.048096,7.804799 
	C145.908691,10.505270 146.549530,12.516139 146.955505,13.790000 
	C152.684998,14.687037 157.932190,14.895228 162.773499,16.404961 
	C170.777298,18.900904 174.006851,25.539429 171.011093,33.367767 
	C169.324036,37.776226 166.540207,41.867008 163.706299,45.698383 
	C161.841751,48.219181 161.491028,49.784779 164.401443,51.737564 
	C171.963943,44.332691 179.106033,36.943768 181.167236,25.268824 
M84.535088,17.682699 
	C86.049690,20.790922 86.982491,24.485111 89.299255,26.785444 
	C90.667564,28.144043 95.998512,28.231014 96.498940,27.282124 
	C98.896111,22.736712 100.905800,17.752718 101.758842,12.705799 
	C102.374298,9.064437 99.520844,6.110181 95.694183,5.235926 
	C91.718704,4.327672 87.684875,4.847353 85.685036,8.803425 
	C84.501602,11.144491 84.703094,14.185652 84.535088,17.682699 
M78.794800,78.924255 
	C87.884819,82.087349 96.995079,81.693634 106.121948,79.043198 
	C103.963676,78.301292 101.796654,78.340446 99.631500,78.293610 
	C94.184982,78.175804 88.608276,78.719353 83.320999,77.729996 
	C72.834579,75.767799 68.804710,67.685562 73.120644,57.899231 
	C74.899902,53.864784 77.611076,50.241329 79.898384,46.430939 
	C79.777855,46.046780 79.657318,45.662617 79.536781,45.278458 
	C78.230614,45.751785 76.367134,45.837887 75.720078,46.769165 
	C73.555206,49.884968 71.434128,53.142742 70.003212,56.635738 
	C65.956207,66.514854 68.656197,73.490219 78.794800,78.924255 
M125.668556,88.983719 
	C128.388733,87.684509 131.297714,86.647697 133.705948,84.914932 
	C134.367798,84.438721 134.122589,80.977554 133.285461,80.431427 
	C128.935410,77.593536 124.259377,75.255356 119.614449,72.697762 
	C116.229622,82.223366 117.781357,86.604446 125.668556,88.983719 
M203.929642,105.532394 
	C204.038696,107.031731 204.147751,108.531067 204.256790,110.030403 
	C204.732025,110.016357 205.207260,110.002312 205.682495,109.988266 
	C205.682495,104.402802 205.682495,98.817337 205.682495,91.939331 
	C200.647675,95.639893 201.237457,101.870804 197.818207,105.326118 
	C194.449570,101.580406 195.538681,95.102295 189.808044,92.519684 
	C189.808044,98.958191 189.808044,104.500015 189.808044,110.041840 
	C190.314774,110.080269 190.821487,110.118698 191.328217,110.157127 
	C191.611282,106.872833 191.894348,103.588539 192.282516,99.084717 
	C194.356842,103.651329 195.866882,106.975693 197.973663,111.613754 
	C200.111435,106.743889 201.645035,103.250298 203.178650,99.756706 
	C203.428986,99.821136 203.679306,99.885574 203.929626,99.950005 
	C203.929626,101.523193 203.929626,103.096382 203.929642,105.532394 
M122.176453,49.710255 
	C121.428337,51.769077 119.450180,54.525333 120.151535,55.762310 
	C122.763489,60.368942 123.546417,66.946617 131.162598,67.695625 
	C130.425842,65.393509 129.748184,63.276058 128.959152,60.810612 
	C132.167709,58.468422 134.572067,55.460194 131.890640,51.354465 
	C129.671707,47.956875 126.436172,47.347874 122.176453,49.710255 
M132.747177,102.818352 
	C134.627289,105.403679 136.507416,107.989014 138.387543,110.574341 
	C138.700317,110.291870 139.013092,110.009407 139.325867,109.726936 
	C139.325867,104.177574 139.325867,98.628212 139.325867,93.078850 
	C138.817566,93.050171 138.309250,93.021492 137.800949,92.992813 
	C137.498795,96.600182 137.196640,100.207542 136.820786,104.694771 
	C133.623962,100.026833 131.015320,96.217735 128.406662,92.408638 
	C128.074814,92.653854 127.742958,92.899071 127.411102,93.144287 
	C127.411102,98.756721 127.411102,104.369164 127.411102,109.981598 
	C127.898232,109.994247 128.385361,110.006897 128.872498,110.019547 
	C128.872498,106.279251 128.872498,102.538963 128.872498,98.798668 
	C129.206406,98.760284 129.540314,98.721901 129.874207,98.683510 
	C130.692307,99.865799 131.510391,101.048088 132.747177,102.818352 
M234.497833,98.555298 
	C234.497833,100.336960 234.497833,102.118622 234.497833,104.931938 
	C230.095383,100.572670 229.053543,95.320824 224.586365,92.559151 
	C224.586365,99.004845 224.586365,104.496788 224.586365,109.988724 
	C225.085312,109.972778 225.584244,109.956833 226.083191,109.940887 
	C226.083191,106.202263 226.083191,102.463631 226.083191,98.147408 
	C230.680450,101.878540 231.060043,108.148949 236.489243,110.209244 
	C236.489243,104.077560 236.489243,98.613060 236.489243,93.148552 
	C236.020523,93.101631 235.551804,93.054710 235.083084,93.007790 
	C234.888138,94.565262 234.693176,96.122726 234.497833,98.555298 
M110.733437,109.936340 
	C111.405647,109.598679 112.354073,109.439613 112.706238,108.895004 
	C115.443405,104.662094 118.536140,104.601105 121.255302,108.732063 
	C121.675186,109.369965 122.606712,109.671097 123.301620,110.127968 
	C123.577492,109.930428 123.853355,109.732880 124.129227,109.535339 
	C122.022247,103.932220 119.915268,98.329094 117.808296,92.725975 
	C117.226738,92.757607 116.645180,92.789230 116.063622,92.820854 
	C114.088005,98.360222 112.112381,103.899590 110.733437,109.936340 
M150.306000,93.136597 
	C147.574722,98.523972 144.843445,103.911354 142.112167,109.298729 
	C142.575821,109.951088 143.039490,110.603447 143.503159,111.255798 
	C147.587921,102.759720 152.060379,105.374115 156.765244,109.383484 
	C154.817459,104.115318 152.869690,98.847145 150.306000,93.136597 
M3.844380,104.098167 
	C5.444769,109.240288 8.004620,111.026222 12.412477,110.075890 
	C16.556747,109.182381 18.703535,104.837044 17.780470,99.210480 
	C17.073378,94.900391 13.905565,92.429337 9.701732,92.908646 
	C5.340630,93.405899 3.819329,96.067841 3.844380,104.098167 
M168.602539,107.716232 
	C166.465408,108.926689 163.761398,109.960449 162.832291,107.006973 
	C161.856567,103.905350 160.988831,99.823334 162.221420,97.165802 
	C164.987961,91.201050 168.354034,97.245392 171.694717,98.163651 
	C170.073578,93.437599 167.330338,91.908249 163.397842,93.133972 
	C159.451706,94.363930 157.653275,99.292923 159.029617,105.106041 
	C159.916870,108.853424 163.334427,110.894714 167.396378,110.119637 
	C172.303238,109.183334 172.580093,105.967918 171.419724,101.601044 
	C169.621140,101.690041 167.878296,101.776276 167.030762,101.818207 
	C167.853531,103.904808 168.470993,105.470711 168.602539,107.716232 
M20.975452,108.060730 
	C21.345392,108.684303 21.715332,109.307869 22.085272,109.931442 
	C22.592154,109.423645 23.442621,108.974625 23.541439,108.397011 
	C23.836960,106.669647 23.838224,104.891953 23.950018,103.199921 
	C26.524378,102.828217 28.649008,102.521446 30.773638,102.214676 
	C30.764345,101.839569 30.755054,101.464455 30.745764,101.089340 
	C28.571861,100.796684 26.397959,100.504021 24.043667,100.187073 
	C24.043667,98.447510 24.043667,96.916222 24.043667,95.430771 
	C26.885456,95.080925 29.380796,94.773727 31.876137,94.466530 
	C31.818291,94.100929 31.760447,93.735321 31.702602,93.369720 
	C28.205894,93.369720 24.709187,93.369720 20.965605,93.369720 
	C20.965605,98.229202 20.965605,102.686501 20.975452,108.060730 
M124.676117,72.888985 
	C127.461136,74.381828 130.246155,75.874664 133.516602,77.627708 
	C133.455444,69.179779 126.553139,69.208870 122.599045,66.065460 
	C119.363495,69.482544 120.896217,71.243896 124.676117,72.888985 
M79.908615,94.847778 
	C79.779922,94.269745 79.667046,93.191956 79.520218,93.187309 
	C76.440521,93.089859 73.356995,93.113678 70.334145,93.113678 
	C70.334145,99.079445 70.334145,104.452225 70.334145,109.819580 
	C73.957352,109.819580 77.230171,109.819580 80.502991,109.819580 
	C78.298187,109.108078 75.549248,109.748146 73.970596,108.671791 
	C72.497330,107.667290 72.267433,104.839195 71.336380,102.412811 
	C74.573723,102.164963 76.523163,102.015717 78.472595,101.866470 
	C71.632027,100.536667 71.632027,100.536667 72.700485,94.936913 
	C74.770088,94.936913 76.904160,94.936913 79.908615,94.847778 
M219.931747,109.066444 
	C211.294113,108.849083 210.996902,108.562988 212.867905,102.131340 
	C213.830368,102.131340 214.825058,102.168266 215.815704,102.120773 
	C216.772583,102.074875 217.725311,101.941963 219.432983,101.772568 
	C211.622406,100.132820 211.622406,100.132820 212.674789,95.200516 
	C215.390671,94.971649 218.092682,94.743950 220.794693,94.516258 
	C220.752945,94.143082 220.711182,93.769905 220.669418,93.396729 
	C217.177399,93.396729 213.685379,93.396729 210.332489,93.396729 
	C210.332489,99.136620 210.332489,104.519684 210.332489,110.195351 
	C213.969742,109.995834 217.250183,109.815887 219.931747,109.066444 
M64.147240,96.186798 
	C64.929459,96.814789 65.711678,97.442780 66.493904,98.070770 
	C65.359169,93.863976 62.559975,92.044922 58.818420,93.226486 
	C54.610004,94.555504 54.048904,98.296570 54.169052,102.153801 
	C54.309544,106.664276 55.152962,107.909508 58.937695,108.763649 
	C58.256859,107.323975 57.439842,106.113602 57.095284,104.781067 
	C55.296043,97.822739 57.812004,94.336670 64.147240,96.186798 
M180.776672,102.168427 
	C182.187271,102.044151 183.597855,101.919868 185.008453,101.795593 
	C184.970352,101.416672 184.932236,101.037750 184.894135,100.658829 
	C182.734451,100.364281 180.574768,100.069725 178.677139,99.810921 
	C178.233780,97.548721 177.877060,95.728577 177.520340,93.908432 
	C177.095840,93.983109 176.671356,94.057785 176.246857,94.132462 
	C176.246857,99.304649 176.246857,104.476837 176.246857,109.656937 
	C179.713043,109.656937 183.012299,109.656937 186.311554,109.656937 
	C186.350235,109.245422 186.388901,108.833908 186.427567,108.422394 
	C183.820221,108.234779 181.212875,108.047173 177.511642,107.780853 
	C178.460510,105.564453 179.182312,103.878456 180.776672,102.168427 
M34.478649,96.965294 
	C34.584412,101.313499 34.690174,105.661705 34.795937,110.009918 
	C35.394596,109.990433 35.993252,109.970947 36.591911,109.951462 
	C36.867184,107.638763 37.142456,105.326065 37.412971,103.053299 
	C39.770927,102.758034 41.872101,102.494926 43.973278,102.231827 
	C43.935635,101.870186 43.897991,101.508545 43.860348,101.146904 
	C41.655418,100.874458 39.450485,100.602013 37.256153,100.330879 
	C37.069271,98.010841 36.912636,96.066315 36.756001,94.121788 
	C36.446140,94.003731 36.136280,93.885674 35.826420,93.767616 
	C35.381241,94.539352 34.936062,95.311089 34.478649,96.965294 
M49.480465,109.987961 
	C52.461594,104.348061 50.629169,98.720367 50.345238,93.088745 
	C49.770931,93.071770 49.196625,93.054794 48.622318,93.037827 
	C48.622318,98.604248 48.622318,104.170670 49.480465,109.987961 
M242.801392,93.004616 
	C241.559250,93.159126 240.317123,93.313629 239.074982,93.468140 
	C239.114166,93.884956 239.153336,94.301781 239.192505,94.718597 
	C240.868835,94.718597 242.545181,94.718597 244.221527,94.718597 
	C244.069214,94.174500 243.916916,93.630394 242.801392,93.004616 
z"/>
<path fill="#D80320" opacity="1.000000" stroke="none" 
	d="
M131.545898,1.000000 
	C145.763306,8.598175 148.418304,22.809597 138.683411,35.986614 
	C137.288498,37.874729 136.609482,40.292877 135.608246,42.469906 
	C135.336761,43.060192 135.212799,43.754673 134.827118,44.250389 
	C131.456131,48.583168 126.788757,45.621017 122.785881,45.985264 
	C121.576340,46.095329 119.982841,42.756149 118.688942,40.910206 
	C117.757088,39.580776 116.849579,38.180714 116.244522,36.685379 
	C114.038002,31.232183 110.842896,25.874474 110.090347,20.205971 
	C108.834885,10.749263 112.881065,5.372304 121.856110,1.317358 
	C125.030594,1.000000 128.061188,1.000000 131.545898,1.000000 
z"/>
<path fill="#D80521" opacity="1.000000" stroke="none" 
	d="
M146.722458,47.246254 
	C151.408951,50.107830 156.174576,52.329128 160.020401,55.624027 
	C167.068970,61.662853 165.435120,69.733467 156.792252,73.084679 
	C153.882126,74.213051 150.772415,74.942047 147.688614,75.477455 
	C143.963547,76.124214 140.169113,76.371300 136.437012,76.787766 
	C131.119553,65.168648 138.978287,55.821365 140.434311,44.955425 
	C142.784836,45.798393 144.585800,46.444271 146.722458,47.246254 
z"/>
<path fill="#D90622" opacity="1.000000" stroke="none" 
	d="
M100.782990,50.743507 
	C105.120766,48.700977 109.137260,46.837791 113.218307,44.944660 
	C115.441231,51.721020 118.219978,57.737301 119.173065,64.030090 
	C119.732742,67.725311 117.444557,71.877411 116.264122,75.771492 
	C116.144829,76.165031 114.776901,76.475868 114.073723,76.349724 
	C108.538345,75.356667 102.822655,74.838387 97.547874,73.042168 
	C88.703003,70.030251 87.255287,62.029911 94.037613,55.603989 
	C95.945091,53.796745 98.307808,52.469997 100.782990,50.743507 
z"/>
<path fill="#605F64" opacity="1.000000" stroke="none" 
	d="
M181.128906,25.703068 
	C179.106033,36.943768 171.963943,44.332691 164.401443,51.737564 
	C161.491028,49.784779 161.841751,48.219181 163.706299,45.698383 
	C166.540207,41.867008 169.324036,37.776226 171.011093,33.367767 
	C174.006851,25.539429 170.777298,18.900904 162.773499,16.404961 
	C157.932190,14.895228 152.684998,14.687037 146.955505,13.790000 
	C146.549530,12.516139 145.908691,10.505270 145.048096,7.804799 
	C155.450607,6.426603 165.437225,5.432502 174.720520,11.120311 
	C179.947021,14.322565 181.772949,19.296469 181.128906,25.703068 
z"/>
<path fill="#D90723" opacity="1.000000" stroke="none" 
	d="
M84.408455,17.297348 
	C84.703094,14.185652 84.501602,11.144491 85.685036,8.803425 
	C87.684875,4.847353 91.718704,4.327672 95.694183,5.235926 
	C99.520844,6.110181 102.374298,9.064437 101.758842,12.705799 
	C100.905800,17.752718 98.896111,22.736712 96.498940,27.282124 
	C95.998512,28.231014 90.667564,28.144043 89.299255,26.785444 
	C86.982491,24.485111 86.049690,20.790922 84.408455,17.297348 
z"/>
<path fill="#6E6D72" opacity="1.000000" stroke="none" 
	d="
M78.439178,78.777161 
	C68.656197,73.490219 65.956207,66.514854 70.003212,56.635738 
	C71.434128,53.142742 73.555206,49.884968 75.720078,46.769165 
	C76.367134,45.837887 78.230614,45.751785 79.536781,45.278458 
	C79.657318,45.662617 79.777855,46.046780 79.898384,46.430939 
	C77.611076,50.241329 74.899902,53.864784 73.120644,57.899231 
	C68.804710,67.685562 72.834579,75.767799 83.320999,77.729996 
	C88.608276,78.719353 94.184982,78.175804 99.631500,78.293610 
	C101.796654,78.340446 103.963676,78.301292 106.121948,79.043198 
	C96.995079,81.693634 87.884819,82.087349 78.439178,78.777161 
z"/>
<path fill="#616065" opacity="1.000000" stroke="none" 
	d="
M125.266823,88.960640 
	C117.781357,86.604446 116.229622,82.223366 119.614449,72.697762 
	C124.259377,75.255356 128.935410,77.593536 133.285461,80.431427 
	C134.122589,80.977554 134.367798,84.438721 133.705948,84.914932 
	C131.297714,86.647697 128.388733,87.684509 125.266823,88.960640 
z"/>
<path fill="#626166" opacity="1.000000" stroke="none" 
	d="
M95.875153,39.946152 
	C97.351089,35.969536 98.827019,31.992918 100.544350,27.365887 
	C103.821404,29.271742 107.026718,30.688097 109.692329,32.789162 
	C113.881638,36.091225 113.112381,40.615211 108.095970,42.303730 
	C105.156723,43.293083 101.934998,43.443230 98.431152,43.493439 
	C97.306358,41.992718 96.590752,40.969437 95.875153,39.946152 
z"/>
<path fill="#DD243D" opacity="1.000000" stroke="none" 
	d="
M203.929626,105.100983 
	C203.929626,103.096382 203.929626,101.523193 203.929626,99.950005 
	C203.679306,99.885574 203.428986,99.821136 203.178650,99.756706 
	C201.645035,103.250298 200.111435,106.743889 197.973663,111.613754 
	C195.866882,106.975693 194.356842,103.651329 192.282516,99.084717 
	C191.894348,103.588539 191.611282,106.872833 191.328217,110.157127 
	C190.821487,110.118698 190.314774,110.080269 189.808044,110.041840 
	C189.808044,104.500015 189.808044,98.958191 189.808044,92.519684 
	C195.538681,95.102295 194.449570,101.580406 197.818207,105.326118 
	C201.237457,101.870804 200.647675,95.639893 205.682495,91.939331 
	C205.682495,98.817337 205.682495,104.402802 205.682495,109.988266 
	C205.207260,110.002312 204.732025,110.016357 204.256790,110.030403 
	C204.147751,108.531067 204.038696,107.031731 203.929626,105.100983 
z"/>
<path fill="#626166" opacity="1.000000" stroke="none" 
	d="
M122.488846,49.477562 
	C126.436172,47.347874 129.671707,47.956875 131.890640,51.354465 
	C134.572067,55.460194 132.167709,58.468422 128.959152,60.810612 
	C129.748184,63.276058 130.425842,65.393509 131.162598,67.695625 
	C123.546417,66.946617 122.763489,60.368942 120.151535,55.762310 
	C119.450180,54.525333 121.428337,51.769077 122.488846,49.477562 
z"/>
<path fill="#5E5D62" opacity="1.000000" stroke="none" 
	d="
M87.900681,43.037739 
	C84.439034,42.748856 80.785713,43.058800 77.561859,42.026966 
	C73.029953,40.576481 72.370865,36.241718 76.121361,33.131836 
	C78.838295,30.878979 82.200638,29.404470 85.724487,27.316662 
	C86.618927,30.109812 87.262978,32.121052 88.006927,34.823311 
	C88.377327,37.999088 88.647812,40.483856 88.663689,42.982872 
	C88.239616,43.010666 88.070152,43.024200 87.900681,43.037739 
z"/>
<path fill="#D90A25" opacity="1.000000" stroke="none" 
	d="
M150.089691,32.920563 
	C149.017624,30.687153 147.228455,28.504105 147.067108,26.206741 
	C146.891754,23.709511 147.530289,20.421732 149.140289,18.776886 
	C150.315979,17.575769 154.582382,17.510576 155.776184,18.675650 
	C157.415710,20.275749 158.071304,23.538767 157.986221,26.049847 
	C157.914581,28.163939 156.183289,30.221796 154.650009,32.660412 
	C152.772141,32.984371 151.430908,32.952465 150.089691,32.920563 
z"/>
<path fill="#DD2039" opacity="1.000000" stroke="none" 
	d="
M132.537842,102.524368 
	C131.510391,101.048088 130.692307,99.865799 129.874207,98.683510 
	C129.540314,98.721901 129.206406,98.760284 128.872498,98.798668 
	C128.872498,102.538963 128.872498,106.279251 128.872498,110.019547 
	C128.385361,110.006897 127.898232,109.994247 127.411102,109.981598 
	C127.411102,104.369164 127.411102,98.756721 127.411102,93.144287 
	C127.742958,92.899071 128.074814,92.653854 128.406662,92.408638 
	C131.015320,96.217735 133.623962,100.026833 136.820786,104.694771 
	C137.196640,100.207542 137.498795,96.600182 137.800949,92.992813 
	C138.309250,93.021492 138.817566,93.050171 139.325867,93.078850 
	C139.325867,98.628212 139.325867,104.177574 139.325867,109.726936 
	C139.013092,110.009407 138.700317,110.291870 138.387543,110.574341 
	C136.507416,107.989014 134.627289,105.403679 132.537842,102.524368 
z"/>
<path fill="#DB142E" opacity="1.000000" stroke="none" 
	d="
M234.498016,98.117744 
	C234.693176,96.122726 234.888138,94.565262 235.083084,93.007790 
	C235.551804,93.054710 236.020523,93.101631 236.489243,93.148552 
	C236.489243,98.613060 236.489243,104.077560 236.489243,110.209244 
	C231.060043,108.148949 230.680450,101.878540 226.083191,98.147408 
	C226.083191,102.463631 226.083191,106.202263 226.083191,109.940887 
	C225.584244,109.956833 225.085312,109.972778 224.586365,109.988724 
	C224.586365,104.496788 224.586365,99.004845 224.586365,92.559151 
	C229.053543,95.320824 230.095383,100.572670 234.497833,104.931938 
	C234.497833,102.118622 234.497833,100.336960 234.498016,98.117744 
z"/>
<path fill="#DD243D" opacity="1.000000" stroke="none" 
	d="
M110.435104,109.687653 
	C112.112381,103.899590 114.088005,98.360222 116.063622,92.820854 
	C116.645180,92.789230 117.226738,92.757607 117.808296,92.725975 
	C119.915268,98.329094 122.022247,103.932220 124.129227,109.535339 
	C123.853355,109.732880 123.577492,109.930428 123.301620,110.127968 
	C122.606712,109.671097 121.675186,109.369965 121.255302,108.732063 
	C118.536140,104.601105 115.443405,104.662094 112.706238,108.895004 
	C112.354073,109.439613 111.405647,109.598679 110.435104,109.687653 
z"/>
<path fill="#DD233B" opacity="1.000000" stroke="none" 
	d="
M150.613953,93.357788 
	C152.869690,98.847145 154.817459,104.115318 156.765244,109.383484 
	C152.060379,105.374115 147.587921,102.759720 143.503159,111.255798 
	C143.039490,110.603447 142.575821,109.951088 142.112167,109.298729 
	C144.843445,103.911354 147.574722,98.523972 150.613953,93.357788 
z"/>
<path fill="#717074" opacity="1.000000" stroke="none" 
	d="
M3.823132,103.665131 
	C3.819329,96.067841 5.340630,93.405899 9.701732,92.908646 
	C13.905565,92.429337 17.073378,94.900391 17.780470,99.210480 
	C18.703535,104.837044 16.556747,109.182381 12.412477,110.075890 
	C8.004620,111.026222 5.444769,109.240288 3.823132,103.665131 
M8.184348,107.524544 
	C14.009037,108.650551 16.297802,106.193741 14.930340,99.434212 
	C14.584705,97.725708 12.164386,95.258080 10.720988,95.274002 
	C9.204061,95.290749 6.760456,97.688942 6.443940,99.370613 
	C5.997769,101.741135 7.136051,104.409859 8.184348,107.524544 
z"/>
<path fill="#656469" opacity="1.000000" stroke="none" 
	d="
M151.906357,43.846512 
	C148.676773,43.439091 145.357193,43.365047 142.244400,42.524937 
	C139.461731,41.773926 138.631989,39.162025 140.601517,37.135754 
	C142.504944,35.177490 144.553391,31.634079 148.533630,35.326706 
	C149.728333,37.047119 150.744141,38.060989 151.683395,39.141399 
	C152.484222,40.062550 153.197037,41.060215 153.857147,42.302841 
	C153.145813,43.003269 152.526077,43.424889 151.906357,43.846512 
z"/>
<path fill="#626166" opacity="1.000000" stroke="none" 
	d="
M87.954590,43.442139 
	C88.070152,43.024200 88.239616,43.010666 88.977020,42.802422 
	C92.002419,39.724319 94.277161,36.841427 89.521355,33.977768 
	C89.820923,32.726227 90.120499,31.474684 91.133667,30.081760 
	C92.097847,29.884745 92.348427,29.829111 92.599007,29.773476 
	C99.496506,30.658447 94.129242,34.630417 94.234001,37.665714 
	C94.344383,40.120495 94.680984,42.077721 95.017586,44.034943 
	C95.162506,44.639263 95.307419,45.243584 95.818146,46.176453 
	C96.333855,46.723141 96.531532,46.881714 96.777008,46.980728 
	C95.125740,48.082626 93.457314,50.126560 91.826645,50.096874 
	C88.041847,50.027973 88.313690,46.565601 87.954590,43.442139 
z"/>
<path fill="#DB1832" opacity="1.000000" stroke="none" 
	d="
M168.845490,107.376427 
	C168.470993,105.470711 167.853531,103.904808 167.030762,101.818207 
	C167.878296,101.776276 169.621140,101.690041 171.419724,101.601044 
	C172.580093,105.967918 172.303238,109.183334 167.396378,110.119637 
	C163.334427,110.894714 159.916870,108.853424 159.029617,105.106041 
	C157.653275,99.292923 159.451706,94.363930 163.397842,93.133972 
	C167.330338,91.908249 170.073578,93.437599 171.694717,98.163651 
	C168.354034,97.245392 164.987961,91.201050 162.221420,97.165802 
	C160.988831,99.823334 161.856567,103.905350 162.832291,107.006973 
	C163.761398,109.960449 166.465408,108.926689 168.845490,107.376427 
z"/>
<path fill="#DC1B34" opacity="1.000000" stroke="none" 
	d="
M96.238724,101.575508 
	C96.934288,102.868446 97.629860,104.161377 98.420135,105.630348 
	C102.187920,102.143456 100.800934,95.297897 106.516861,92.629990 
	C106.516861,98.847893 106.516861,104.389168 106.516861,109.930450 
	C106.036400,109.943764 105.555946,109.957069 105.075485,109.970383 
	C104.918877,106.700294 104.762268,103.430206 104.531456,98.610870 
	C102.396477,103.261421 100.795456,106.748863 98.611755,111.505531 
	C97.081902,108.062027 96.114380,105.884262 95.377609,103.163124 
	C95.818481,102.271667 96.028603,101.923592 96.238724,101.575508 
z"/>
<path fill="#78787C" opacity="1.000000" stroke="none" 
	d="
M20.970528,107.602264 
	C20.965605,102.686501 20.965605,98.229202 20.965605,93.369720 
	C24.709187,93.369720 28.205894,93.369720 31.702602,93.369720 
	C31.760447,93.735321 31.818291,94.100929 31.876137,94.466530 
	C29.380796,94.773727 26.885456,95.080925 24.043667,95.430771 
	C24.043667,96.916222 24.043667,98.447510 24.043667,100.187073 
	C26.397959,100.504021 28.571861,100.796684 30.745764,101.089340 
	C30.755054,101.464455 30.764345,101.839569 30.773638,102.214676 
	C28.649008,102.521446 26.524378,102.828217 23.950018,103.199921 
	C23.838224,104.891953 23.836960,106.669647 23.541439,108.397011 
	C23.442621,108.974625 22.592154,109.423645 22.085272,109.931442 
	C21.715332,109.307869 21.345392,108.684303 20.970528,107.602264 
z"/>
<path fill="#636267" opacity="1.000000" stroke="none" 
	d="
M155.901474,36.941467 
	C156.335754,35.716625 156.770035,34.491783 157.167938,33.369553 
	C157.714447,33.269165 158.101242,33.063450 158.321823,33.177948 
	C161.288879,34.717979 166.011627,35.593201 164.874481,39.758385 
	C164.347473,41.688778 159.711731,42.497452 156.487396,43.534317 
	C155.719360,42.834694 155.402603,42.415417 155.116501,41.626511 
	C155.398605,39.818413 155.650040,38.379940 155.901474,36.941467 
z"/>
<path fill="#69686C" opacity="1.000000" stroke="none" 
	d="
M124.370468,72.706680 
	C120.896217,71.243896 119.363495,69.482544 122.599045,66.065460 
	C126.553139,69.208870 133.455444,69.179779 133.516602,77.627708 
	C130.246155,75.874664 127.461136,74.381828 124.370468,72.706680 
z"/>
<path fill="#605F64" opacity="1.000000" stroke="none" 
	d="
M79.473419,94.892349 
	C76.904160,94.936913 74.770088,94.936913 72.700485,94.936913 
	C71.632027,100.536667 71.632027,100.536667 78.472595,101.866470 
	C76.523163,102.015717 74.573723,102.164963 71.336380,102.412811 
	C72.267433,104.839195 72.497330,107.667290 73.970596,108.671791 
	C75.549248,109.748146 78.298187,109.108078 80.502991,109.819580 
	C77.230171,109.819580 73.957352,109.819580 70.334145,109.819580 
	C70.334145,104.452225 70.334145,99.079445 70.334145,93.113678 
	C73.356995,93.113678 76.440521,93.089859 79.520218,93.187309 
	C79.667046,93.191956 79.779922,94.269745 79.473419,94.892349 
z"/>
<path fill="#D90A26" opacity="1.000000" stroke="none" 
	d="
M220.231201,109.351196 
	C217.250183,109.815887 213.969742,109.995834 210.332489,110.195351 
	C210.332489,104.519684 210.332489,99.136620 210.332489,93.396729 
	C213.685379,93.396729 217.177399,93.396729 220.669418,93.396729 
	C220.711182,93.769905 220.752945,94.143082 220.794693,94.516258 
	C218.092682,94.743950 215.390671,94.971649 212.674789,95.200516 
	C211.622406,100.132820 211.622406,100.132820 219.432983,101.772568 
	C217.725311,101.941963 216.772583,102.074875 215.815704,102.120773 
	C214.825058,102.168266 213.830368,102.131340 212.867905,102.131340 
	C210.996902,108.562988 211.294113,108.849083 220.231201,109.351196 
z"/>
<path fill="#DA0F2A" opacity="1.000000" stroke="none" 
	d="
M96.192894,101.217178 
	C96.028603,101.923592 95.818481,102.271667 95.359543,102.798042 
	C94.553177,102.013985 93.995621,101.051628 92.679893,98.780663 
	C92.435165,103.384087 92.258087,106.714859 92.081017,110.045639 
	C91.593620,110.032021 91.106232,110.018410 90.618835,110.004791 
	C90.618835,104.469543 90.618835,98.934296 90.618835,93.015457 
	C95.464104,93.382446 94.335625,98.265739 96.192894,101.217178 
z"/>
<path fill="#717075" opacity="1.000000" stroke="none" 
	d="
M63.873123,95.895470 
	C57.812004,94.336670 55.296043,97.822739 57.095284,104.781067 
	C57.439842,106.113602 58.256859,107.323975 58.937695,108.763649 
	C55.152962,107.909508 54.309544,106.664276 54.169052,102.153801 
	C54.048904,98.296570 54.610004,94.555504 58.818420,93.226486 
	C62.559975,92.044922 65.359169,93.863976 66.493904,98.070770 
	C65.711678,97.442780 64.929459,96.814789 63.873123,95.895470 
z"/>
<path fill="#DB1832" opacity="1.000000" stroke="none" 
	d="
M180.340393,102.180435 
	C179.182312,103.878456 178.460510,105.564453 177.511642,107.780853 
	C181.212875,108.047173 183.820221,108.234779 186.427567,108.422394 
	C186.388901,108.833908 186.350235,109.245422 186.311554,109.656937 
	C183.012299,109.656937 179.713043,109.656937 176.246857,109.656937 
	C176.246857,104.476837 176.246857,99.304649 176.246857,94.132462 
	C176.671356,94.057785 177.095840,93.983109 177.520340,93.908432 
	C177.877060,95.728577 178.233780,97.548721 178.677139,99.810921 
	C180.574768,100.069725 182.734451,100.364281 184.894135,100.658829 
	C184.932236,101.037750 184.970352,101.416672 185.008453,101.795593 
	C183.597855,101.919868 182.187271,102.044151 180.340393,102.180435 
z"/>
<path fill="#6C6B70" opacity="1.000000" stroke="none" 
	d="
M34.484764,96.524063 
	C34.936062,95.311089 35.381241,94.539352 35.826420,93.767616 
	C36.136280,93.885674 36.446140,94.003731 36.756001,94.121788 
	C36.912636,96.066315 37.069271,98.010841 37.256153,100.330879 
	C39.450485,100.602013 41.655418,100.874458 43.860348,101.146904 
	C43.897991,101.508545 43.935635,101.870186 43.973278,102.231827 
	C41.872101,102.494926 39.770927,102.758034 37.412971,103.053299 
	C37.142456,105.326065 36.867184,107.638763 36.591911,109.951462 
	C35.993252,109.970947 35.394596,109.990433 34.795937,110.009918 
	C34.690174,105.661705 34.584412,101.313499 34.484764,96.524063 
z"/>
<path fill="#7E7E82" opacity="1.000000" stroke="none" 
	d="
M49.051392,109.862526 
	C48.622318,104.170670 48.622318,98.604248 48.622318,93.037827 
	C49.196625,93.054794 49.770931,93.071770 50.345238,93.088745 
	C50.629169,98.720367 52.461594,104.348061 49.051392,109.862526 
z"/>
<path fill="#D7D7D8" opacity="1.000000" stroke="none" 
	d="
M155.644058,36.701355 
	C155.650040,38.379940 155.398605,39.818413 154.832428,41.642792 
	C154.328049,42.027145 154.138412,42.025589 153.948776,42.024033 
	C153.197037,41.060215 152.484222,40.062550 151.683395,39.141399 
	C150.744141,38.060989 149.728333,37.047119 148.722473,35.618076 
	C149.125732,34.695923 149.552261,34.160084 150.034241,33.272400 
	C151.430908,32.952465 152.772141,32.984371 154.515137,32.986374 
	C155.073486,34.124722 155.230057,35.292980 155.644058,36.701355 
z"/>
<path fill="#DA0E29" opacity="1.000000" stroke="none" 
	d="
M247.079590,95.170471 
	C247.079590,100.071297 247.079590,104.972130 247.079590,109.872955 
	C246.588745,109.933792 246.097885,109.994629 245.607040,110.055458 
	C245.312439,109.169022 244.812271,108.294907 244.758224,107.394043 
	C244.500473,103.096756 244.313736,98.792854 244.258270,94.489281 
	C244.252441,94.036736 245.274323,93.570961 246.412933,93.643311 
	C247.030869,94.507019 247.055237,94.838745 247.079590,95.170471 
z"/>
<path fill="#6B6A6F" opacity="1.000000" stroke="none" 
	d="
M89.341537,34.222549 
	C94.277161,36.841427 92.002419,39.724319 89.231628,42.788170 
	C88.647812,40.483856 88.377327,37.999088 88.082199,35.187798 
	C88.425621,34.729954 88.793663,34.598640 89.341537,34.222549 
z"/>
<path fill="#6B6A6F" opacity="1.000000" stroke="none" 
	d="
M95.389435,43.968292 
	C94.680984,42.077721 94.344383,40.120495 94.325035,38.073212 
	C94.860107,38.560593 95.077919,39.138035 95.585449,39.830818 
	C96.590752,40.969437 97.306358,41.992718 98.021111,43.381271 
	C97.267265,43.798244 96.514282,43.849945 95.389435,43.968292 
z"/>
<path fill="#DD243D" opacity="1.000000" stroke="none" 
	d="
M247.481812,95.120087 
	C247.055237,94.838745 247.030869,94.507019 246.980377,93.677017 
	C248.841934,93.178741 250.729599,93.178741 252.617279,93.178741 
	C252.658813,93.673584 252.700348,94.168434 252.741882,94.663277 
	C251.122589,94.798752 249.503311,94.934227 247.481812,95.120087 
z"/>
<path fill="#DD243D" opacity="1.000000" stroke="none" 
	d="
M243.282990,93.045456 
	C243.916916,93.630394 244.069214,94.174500 244.221527,94.718597 
	C242.545181,94.718597 240.868835,94.718597 239.192505,94.718597 
	C239.153336,94.301781 239.114166,93.884956 239.074982,93.468140 
	C240.317123,93.313629 241.559250,93.159126 243.282990,93.045456 
z"/>
<path fill="#B5B5B7" opacity="1.000000" stroke="none" 
	d="
M153.857147,42.302841 
	C154.138412,42.025589 154.328049,42.027145 154.801758,42.012417 
	C155.402603,42.415417 155.719360,42.834694 156.100327,43.514156 
	C154.949570,43.900059 153.734604,44.025780 152.213013,43.999008 
	C152.526077,43.424889 153.145813,43.003269 153.857147,42.302841 
z"/>
<path fill="#6B6A6F" opacity="1.000000" stroke="none" 
	d="
M92.421036,29.615358 
	C92.348427,29.829111 92.097847,29.884745 91.464874,29.984985 
	C91.469337,29.838806 91.856201,29.648024 92.421036,29.615358 
z"/>
<path fill="#66656A" opacity="1.000000" stroke="none" 
	d="
M96.805496,46.738014 
	C96.531532,46.881714 96.333855,46.723141 96.099152,46.332447 
	C96.392006,46.016438 96.665222,46.128242 96.805496,46.738014 
z"/>
<path fill="#FAFAFA" opacity="1.000000" stroke="none" 
	d="
M7.890616,107.237816 
	C7.136051,104.409859 5.997769,101.741135 6.443940,99.370613 
	C6.760456,97.688942 9.204061,95.290749 10.720988,95.274002 
	C12.164386,95.258080 14.584705,97.725708 14.930340,99.434212 
	C16.297802,106.193741 14.009037,108.650551 7.890616,107.237816 
z"/>
</svg>